<svg width="379" height="110" viewBox="0 0 379 110" fill="none" xmlns="http://www.w3.org/2000/svg">
<path fill-rule="evenodd" clip-rule="evenodd" d="M0 70.1075L9.15917 74.54C18.0025 78.9725 36.005 87.8375 54.0075 74.54C72.3258 61.2426 90.3283 25.7826 108.331 10.2689C126.333 -5.24488 144.336 -0.812382 162.338 8.05261C180.341 16.9176 198.659 30.2151 216.662 30.2151C234.664 30.2151 252.667 16.9176 270.669 25.7826C288.672 34.6476 306.674 65.6751 324.993 67.8913C342.995 70.1075 360.998 43.5126 369.841 30.2151L379 16.9176V110H369.841C360.998 110 342.995 110 324.993 110C306.674 110 288.672 110 270.669 110C252.667 110 234.664 110 216.662 110C198.659 110 180.341 110 162.338 110C144.336 110 126.333 110 108.331 110C90.3283 110 72.3258 110 54.0075 110C36.005 110 18.0025 110 9.15917 110H0V70.1075Z" fill="#EEF2FF"/>
</svg>
