<svg xmlns="http://www.w3.org/2000/svg" viewBox="0 0 500 500"><g id="freepik--background-complete--inject-37"><rect y="382.4" width="500" height="0.25" style="fill:#ebebeb"></rect><rect x="416.78" y="398.49" width="33.12" height="0.25" style="fill:#ebebeb"></rect><rect x="333.38" y="398.49" width="70.81" height="0.25" style="fill:#ebebeb"></rect><rect x="275.14" y="389.21" width="19.19" height="0.25" style="fill:#ebebeb"></rect><rect x="52.46" y="390.89" width="34.29" height="0.25" style="fill:#ebebeb"></rect><rect x="95.65" y="390.89" width="62.35" height="0.25" style="fill:#ebebeb"></rect><rect x="188.33" y="395.11" width="36.81" height="0.25" style="fill:#ebebeb"></rect><path d="M237,337.8H43.91a5.71,5.71,0,0,1-5.7-5.71V60.66A5.71,5.71,0,0,1,43.91,55H237a5.71,5.71,0,0,1,5.71,5.71V332.09A5.71,5.71,0,0,1,237,337.8ZM43.91,55.2a5.46,5.46,0,0,0-5.45,5.46V332.09a5.46,5.46,0,0,0,5.45,5.46H237a5.47,5.47,0,0,0,5.46-5.46V60.66A5.47,5.47,0,0,0,237,55.2Z" style="fill:#ebebeb"></path><path d="M453.31,337.8H260.21a5.72,5.72,0,0,1-5.71-5.71V60.66A5.72,5.72,0,0,1,260.21,55h193.1A5.71,5.71,0,0,1,459,60.66V332.09A5.71,5.71,0,0,1,453.31,337.8ZM260.21,55.2a5.47,5.47,0,0,0-5.46,5.46V332.09a5.47,5.47,0,0,0,5.46,5.46h193.1a5.47,5.47,0,0,0,5.46-5.46V60.66a5.47,5.47,0,0,0-5.46-5.46Z" style="fill:#ebebeb"></path><rect x="142.04" y="69.54" width="220.45" height="143.19" transform="translate(504.53 282.27) rotate(180)" style="fill:#e6e6e6"></rect><rect x="137.51" y="69.54" width="222.19" height="143.19" transform="translate(497.22 282.27) rotate(180)" style="fill:#f0f0f0"></rect><rect x="184.79" y="34.63" width="127.64" height="213.01" transform="translate(389.74 -107.48) rotate(90)" style="fill:#fafafa"></rect><polygon points="328.97 204.95 302.03 77.31 266.72 77.31 293.66 204.95 328.97 204.95" style="fill:#fff"></polygon><polygon points="287.94 204.95 261 77.31 245.05 77.31 271.99 204.95 287.94 204.95" style="fill:#fff"></polygon><polygon points="224.66 204.95 197.72 77.31 170.48 77.31 197.42 204.95 224.66 204.95" style="fill:#fff"></polygon><rect x="78.57" y="140.84" width="127.64" height="0.58" transform="translate(283.53 -1.26) rotate(90)" style="fill:#e6e6e6"></rect><rect x="241.99" y="69.54" width="13.24" height="143.19" transform="translate(497.22 282.27) rotate(180)" style="fill:#f0f0f0"></rect><rect x="191.7" y="140.84" width="127.64" height="0.58" transform="translate(396.65 -114.39) rotate(90)" style="fill:#e6e6e6"></rect><rect x="248.38" y="69.54" width="0.46" height="143.19" transform="translate(497.22 282.27) rotate(180)" style="fill:#e6e6e6"></rect><rect x="405.93" y="270.96" width="40.17" height="104.8" transform="translate(852.03 646.72) rotate(180)" style="fill:#f0f0f0"></rect><rect x="240.29" y="375.76" width="198.1" height="6.64" transform="translate(678.67 758.16) rotate(180)" style="fill:#f0f0f0"></rect><rect x="232.57" y="270.96" width="173.35" height="104.8" style="fill:#f5f5f5"></rect><rect x="248.37" y="283.86" width="141.77" height="34.37" style="fill:#f0f0f0"></rect><rect x="248.37" y="328.49" width="141.77" height="34.37" style="fill:#f0f0f0"></rect><rect x="299.42" y="298.69" width="39.67" height="4.71" rx="1.92" transform="translate(638.5 602.09) rotate(180)" style="fill:#f5f5f5"></rect><rect x="299.42" y="343.32" width="39.67" height="4.71" rx="1.92" transform="translate(638.5 691.35) rotate(180)" style="fill:#f5f5f5"></rect><path d="M310.37,253.31s-.48,17.65-19,17.65-19-17.65-19-17.65Z" style="fill:#f0f0f0"></path><path d="M353.68,253.31s-.49,17.65-19,17.65-19-17.65-19-17.65Z" style="fill:#f0f0f0"></path><path d="M310.37,241.62s-.48,17.65-19,17.65-19-17.65-19-17.65Z" style="fill:#f0f0f0"></path><path d="M353.68,241.62s-.49,17.65-19,17.65-19-17.65-19-17.65Z" style="fill:#f0f0f0"></path><path d="M397,253.31S396.49,271,378,271s-19-17.65-19-17.65Z" style="fill:#f0f0f0"></path><path d="M397,241.62s-.49,17.65-19,17.65-19-17.65-19-17.65Z" style="fill:#f0f0f0"></path><rect x="385.32" y="127" width="25.22" height="47.55" transform="translate(795.87 301.55) rotate(180)" style="fill:#e6e6e6"></rect><rect x="379.68" y="127" width="29.62" height="47.55" transform="translate(788.98 301.55) rotate(180)" style="fill:#f5f5f5"></rect><rect x="374.94" y="140.47" width="39.1" height="20.6" transform="translate(545.26 -243.72) rotate(90)" style="fill:#fff"></rect><rect x="423.52" y="157.72" width="25.22" height="47.55" transform="translate(872.26 363) rotate(180)" style="fill:#e6e6e6"></rect><rect x="417.87" y="157.72" width="29.62" height="47.55" transform="translate(865.37 363) rotate(180)" style="fill:#f5f5f5"></rect><rect x="413.13" y="171.2" width="39.1" height="20.6" transform="translate(614.18 -251.18) rotate(90)" style="fill:#fff"></rect><rect x="72.75" y="103.25" width="36.07" height="68" transform="translate(181.57 274.5) rotate(180)" style="fill:#e6e6e6"></rect><rect x="64.67" y="103.25" width="42.37" height="68" transform="translate(171.72 274.5) rotate(180)" style="fill:#f5f5f5"></rect><rect x="57.9" y="122.52" width="55.92" height="29.47" transform="translate(223.11 51.39) rotate(90)" style="fill:#fff"></rect><path d="M58.7,290.63c-4.77-14-19.32-19.22-23.54-28.06-5.53-11.58-3.51-28.95,3-35.22,5.69-5.45,18.28,31.39,19.7,35.51,4.89,14.15,5.58,24.66,5.64,34.83.84-8.65,1.62-16.59,2.21-22.72,1.92-20,2.21-26.42,2.23-28.4-.59-1-1.29-2.09-1.7-2.69-3.48-5.11-11.8-11.19-15.46-18.61-5.34-10.84-2.8-23.81,2.37-28.64,5.4-5,12.56,6.89,15.74,18.71s0,23.15.1,33c0,1.93-.51,9.24-1.41,19.39,2.62-10.92,6.19-18.23,12-25,7.2-8.38,13.74-18.6,18.73-17.28s.68,14.83-4.46,24.32c-4.59,8.44-23.41,16.87-26.81,23.66-1.26,13.76-3,31.18-4.62,47.41,2.36-8.38,1.47-9.09,8.7-21.92,4.3-7.63,19.44-17,20.52-11.79s-2.6,15.15-8.7,22.08c-4.92,5.6-14.42,5.59-17,9.07-.6.81-2.65,3.91-3.83,5.7-2,19.81-3.92,37.3-4.71,43.26l-.93.06c.22-1.54,1.26-11.62,2.6-25-1.5-7.1-16.56-11.24-20.51-18.62-4.14-7.72-6.72-16.74-3.88-22.77,2.37-5,15.74,1.81,20.53,10.15,3.19,5.55,4.86,11.48,5,19.44.9-9.09,1.87-18.85,2.77-28.06C62.17,300.12,60.13,294.82,58.7,290.63Z" style="fill:#e6e6e6"></path><path d="M72.84,382.4H43c-1.64,0-3-1.91-3.37-4.56L37.47,360.5H78.33L76.2,377.84C75.88,380.49,74.47,382.4,72.84,382.4Z" style="fill:#e6e6e6"></path><path d="M79.18,361.79H36.62a1.9,1.9,0,0,1-2-1.3l-.87-5.68c-.13-.87.8-1.63,2-1.63h44.3c1.2,0,2.13.76,2,1.63l-.87,5.68A1.88,1.88,0,0,1,79.18,361.79Z" style="fill:#f0f0f0"></path></g><g id="freepik--Shadow--inject-37"><ellipse id="freepik--path--inject-37" cx="250" cy="416.24" rx="193.89" ry="11.32" style="fill:#f5f5f5"></ellipse></g><g id="freepik--Character--inject-37"><path d="M345.09,107.26c-10.8,6.35-2.09,12.92-3.75,19.29s-1.49,8.31,1.29,12-5.69,5.26.53,8.58,30.57.35,25.87-21S351.06,103.76,345.09,107.26Z" style="fill:#263238"></path><path d="M342.67,147.13h-.09c-1.75-.58-2.75-1.29-3.06-2.18-.4-1.16.4-2.36,1.25-3.63,1-1.56,2-3,.93-4.44-.29-.37-.56-.71-.82-1-2.24-2.81-3.17-4-.88-9.59.85-2.08.28-4-.33-5.94-1.09-3.56-2.32-7.6,5.26-13.28a.28.28,0,0,1,.33.44c-7.27,5.45-6.15,9.12-5.06,12.68.61,2,1.24,4,.32,6.31-2.18,5.32-1.43,6.26.79,9l.82,1c1.34,1.73.15,3.51-.9,5.09-.77,1.15-1.49,2.24-1.18,3.14.25.72,1.13,1.32,2.7,1.83a.28.28,0,0,1-.08.54Z" style="fill:#263238"></path><path d="M350.15,171c-1.06,4.94-2.28,9.87-3.52,14.78s-2.55,9.81-3.88,14.69l-.5,1.83-.25.92-.24.83a9.85,9.85,0,0,1-.36,1,10.77,10.77,0,0,1-2.57,3.78,11.19,11.19,0,0,1-3.6,2.24,15.13,15.13,0,0,1-6.09.9,25.75,25.75,0,0,1-4.75-.72,43,43,0,0,1-8-2.87,53.36,53.36,0,0,1-7.14-4,3.6,3.6,0,0,1,2.79-6.52l.2.05a83.54,83.54,0,0,0,13.86,2.35,15,15,0,0,0,2.85-.12c.79-.09,1.39-.35,1.36-.46s-.2,0-.44.15a2.12,2.12,0,0,0-.52.6s0,.08-.06.09l0,0s0,0,0,0l0-.12.16-.94.33-1.9c.87-5,1.85-10,2.89-15s2.17-10,3.49-14.91a7.2,7.2,0,0,1,14,3.35Z" style="fill:#7f3e3b"></path><path d="M340.59,156.56c-6.18,3-8.28,18.92-8.28,18.92L351,186.19s7.46-14.08,4.91-23.28C354.46,157.7,351.26,151.34,340.59,156.56Z" style="fill:#5078FA"></path><path d="M313.42,198.14l-5.17-3-.74,9s4.4,3,7.39-.44l.42-2.11A3.84,3.84,0,0,0,313.42,198.14Z" style="fill:#7f3e3b"></path><path d="M301.88,197.31l-.65,3.23a1.56,1.56,0,0,0,1,1.87l5.28,1.77.74-9-3.89.08A2.7,2.7,0,0,0,301.88,197.31Z" style="fill:#7f3e3b"></path><polygon points="376.1 406.54 366.59 406.75 364.82 385.08 374.33 384.86 376.1 406.54" style="fill:#7f3e3b"></polygon><path d="M366,405.58h10.53a.73.73,0,0,1,.75.64l1.2,8.33a1.5,1.5,0,0,1-1.5,1.67c-3.68-.06-5.44-.28-10.08-.28-2.85,0-11,.3-15,.3s-4.14-3.89-2.51-4.25c7.35-1.58,12.54-3.76,15-5.84A2.49,2.49,0,0,1,366,405.58Z" style="fill:#263238"></path><g style="opacity:0.2"><polygon points="364.82 385.08 365.73 396.25 375.25 396.04 374.34 384.87 364.82 385.08"></polygon></g><path d="M388.38,155.13a8.33,8.33,0,0,0-8.21-7.56c-11.59-.16-27.06,3.51-36.35,7.47a9.55,9.55,0,0,0-5.79,8.15,47.64,47.64,0,0,0,0,5.94h0c-.56,2.33-4.83,19.66,3.48,22.75a5.55,5.55,0,0,0,.59.18c1.86,7.3,4.48,16.06,8.14,26.59,14.89-2.6,40.3-8.25,47.54-9.52C398.4,198,390.91,182.84,388.38,155.13Z" style="fill:#5078FA"></path><path d="M369.6,129.71c-.53,5.74-.26,16,5.7,18.77,0,0-5.17,10.43-19.74,17.57-8.61-5-3.9-13.44-3.9-13.44,8.23-2.94,7.22-7.43,5-11.43Z" style="fill:#7f3e3b"></path><path d="M351.81,152.5a.52.52,0,0,0-.55-.73c-7.21,1.13-12.41,4.41-13.66,13.17-.72,5-2.19,11.79-2.51,18.89-.09,2,1.39,5.23,3,6,.92,7.7,2.56,15.23,5.07,20.67a12.91,12.91,0,0,0,10-.19S344.25,168,351.81,152.5Z" style="fill:#263238"></path><path d="M373.48,147.27c-8.57,3.18-9.07,7.61-8.16,19.8,1,13.84,5.46,32,7.81,39.71,17.53-3.68,25.25-10.52,25.25-10.52s-5.94-36.7-8-42.88S379.94,144.87,373.48,147.27Z" style="fill:#263238"></path><path d="M364.32,134.39l-7.66,6.78a13.85,13.85,0,0,1,1.26,2.9c3.29.53,7.25-3.07,7.4-5.58A9.78,9.78,0,0,0,364.32,134.39Z" style="opacity:0.2"></path><path d="M369.67,118.73c.68,9.28,1.16,13.2-2.85,18.55-6,8.05-17.59,6.84-21-2.05-3.09-8-3.67-21.84,4.84-26.71A12.69,12.69,0,0,1,369.67,118.73Z" style="fill:#7f3e3b"></path><path d="M350.28,218.65s-5.65,55.47-3.13,84c2.62,29.64,15.3,91.37,15.3,91.37H377.9s.71-69.36-3.73-100.45c5.64-31.82,10.81-80.93,7.93-80.44Z" style="fill:#263238"></path><polygon points="379 394.44 361.36 394.44 360.26 389.69 379.69 389.11 379 394.44" style="fill:#5078FA"></polygon><path d="M374.33,234.57c2.5-4.6,5.34-4.82,7.63-2.5-1.26,16-3.91,38.1-6.86,56C370.62,272.32,365.8,250.23,374.33,234.57Z" style="opacity:0.2"></path><polygon points="448.44 374.87 439.43 379.23 426.67 361.28 435.68 356.92 448.44 374.87" style="fill:#7f3e3b"></polygon><path d="M437.87,378.17l7.4-7.49a.86.86,0,0,1,1-.14l7.54,4.23a1.31,1.31,0,0,1,.28,2.09c-2.64,2.57-4.05,3.7-7.31,7-2,2-7.94,8.44-11.43,10.24s-5.92-1.32-4.67-2.36c5.62-4.69,6.44-9.07,6.51-12.1A2.13,2.13,0,0,1,437.87,378.17Z" style="fill:#263238"></path><g style="opacity:0.2"><polygon points="426.68 361.28 433.25 370.53 442.26 366.18 435.69 356.92 426.68 361.28"></polygon></g><path d="M365,216.07s7.26,57.17,20,83.13c13.26,27,44.77,69.22,44.77,69.22L441.66,364s-16.46-48-33.45-76.89c-1.65-31-2-64.51-10.15-76.79Z" style="fill:#263238"></path><polygon points="442.85 363.36 430.17 370.2 426.13 366.34 441.44 357.45 442.85 363.36" style="fill:#5078FA"></polygon><path d="M436.71,381.68a3.91,3.91,0,0,1-2.06,1.26,1.43,1.43,0,0,1-1.15-.37.61.61,0,0,1-.21-.63c.3-1.2,4.46-2.7,4.93-2.86a.26.26,0,0,1,.27.05.18.18,0,0,1,0,.24A15.22,15.22,0,0,1,436.71,381.68Zm-2.73,0a.89.89,0,0,0-.23.34.27.27,0,0,0,.09.26.92.92,0,0,0,.75.25c.81-.09,2-1.14,3.15-2.83A13.49,13.49,0,0,0,434,381.68Z" style="fill:#5078FA"></path><path d="M438.49,379.41l-.08,0c-1.19.48-4.37.82-5.1.05-.17-.18-.3-.5.08-1a1.84,1.84,0,0,1,1.17-.64c1.62-.23,3.8,1.15,3.89,1.21a.22.22,0,0,1,.1.19A.34.34,0,0,1,438.49,379.41Zm-4.62-.74-.09.1c-.25.32-.14.43-.1.47.43.47,2.77.37,4.12,0a6,6,0,0,0-3.16-.92A1.33,1.33,0,0,0,433.87,378.67Z" style="fill:#5078FA"></path><path d="M354.45,123.42c.1.75-.21,1.41-.7,1.48s-1-.49-1.07-1.24.21-1.41.7-1.47S354.35,122.67,354.45,123.42Z" style="fill:#263238"></path><path d="M346,124.56c.1.75-.22,1.41-.71,1.48s-1-.49-1.06-1.24.21-1.41.7-1.47S345.88,123.81,346,124.56Z" style="fill:#263238"></path><path d="M345.13,123.34l-1.87-.28S344.37,124.34,345.13,123.34Z" style="fill:#263238"></path><path d="M349.64,125.29a20,20,0,0,1-2,5.14,3.27,3.27,0,0,0,2.74.15Z" style="fill:#630f0f"></path><path d="M354.84,133a7,7,0,0,1-1.09.23.21.21,0,0,1-.25-.19.22.22,0,0,1,.19-.25,5.91,5.91,0,0,0,4.52-3,.23.23,0,0,1,.41.19A6.27,6.27,0,0,1,354.84,133Z" style="fill:#263238"></path><path d="M373.28,126.3a7.35,7.35,0,0,1-3.75,4.5c-2.37,1.14-4.06-1.09-3.82-3.75.22-2.4,1.72-5.89,4.3-5.9S374,123.84,373.28,126.3Z" style="fill:#7f3e3b"></path><path d="M343.16,108.74c1.35,4,11,2.73,12,6.83s.66,9,5.87,9.15,6.9,7.65,6.17,11.34.8,10.88,10.12,8.52,13-10.89,6.89-19c-3.43-4.55-2-5-1.76-10,.16-4.07,0-9.66-5.93-11.26-5.5-1.47-7.12.69-12.49-3.2C355.49,95,339.7,98.56,343.16,108.74Z" style="fill:#263238"></path><path d="M357.22,120.66a.45.45,0,0,1-.48-.21c-1-1.78-3.65-2.06-3.67-2.06a.45.45,0,0,1-.41-.48.44.44,0,0,1,.49-.4c.13,0,3.12.32,4.36,2.5a.43.43,0,0,1-.16.6A.35.35,0,0,1,357.22,120.66Z" style="fill:#263238"></path><path d="M343.27,121.21a.46.46,0,0,1-.44,0,.44.44,0,0,1-.13-.62,4.39,4.39,0,0,1,3.47-2.09.43.43,0,0,1,.44.44.44.44,0,0,1-.44.44h0a3.55,3.55,0,0,0-2.73,1.69A.37.37,0,0,1,343.27,121.21Z" style="fill:#263238"></path><path d="M391.06,154c1.45.71,2.66,1.34,3.94,2.06s2.49,1.44,3.72,2.19c2.44,1.53,4.85,3.12,7.18,4.87A68.39,68.39,0,0,1,419,175.49l.39.47c.26.35.52.71.71,1a11.24,11.24,0,0,1,.92,1.84,16.21,16.21,0,0,1,.89,3,32.16,32.16,0,0,1,.53,5,65.31,65.31,0,0,1-.4,8.85,105.22,105.22,0,0,1-3.23,16.62,3.6,3.6,0,0,1-7.07-.86v-.1c-.16-5.33-.24-10.75-.58-15.94a73.23,73.23,0,0,0-.78-7.47,19.05,19.05,0,0,0-.73-3.07,4.33,4.33,0,0,0-.38-.87c-.05-.05-.08-.07,0,0a1.28,1.28,0,0,0,.12.2l-.29-.29a57.7,57.7,0,0,0-5.32-4.76c-1.93-1.53-4-3-6.07-4.41s-4.27-2.79-6.48-4.11c-1.09-.67-2.21-1.31-3.31-2l-3.24-1.83-.25-.14A7.2,7.2,0,0,1,391.06,154Z" style="fill:#7f3e3b"></path><path d="M381.33,147.66c8.15-.62,19.24,10.06,19.24,10.06l-7.48,16.16s-12-2.33-16.65-8.26C371.5,159.28,375.29,148.12,381.33,147.66Z" style="fill:#5078FA"></path><path d="M362.44,407.22a3.58,3.58,0,0,1-2.28-.58,1.25,1.25,0,0,1-.4-1.08.73.73,0,0,1,.38-.59c1.15-.63,4.89,1.28,5.31,1.5a.23.23,0,0,1,.12.23.24.24,0,0,1-.18.18A15.85,15.85,0,0,1,362.44,407.22Zm-1.67-1.94a.83.83,0,0,0-.42.08.27.27,0,0,0-.14.24.78.78,0,0,0,.25.71c.57.51,2.11.6,4.19.26A12.09,12.09,0,0,0,360.77,405.28Z" style="fill:#5078FA"></path><path d="M365.35,406.89l-.1,0c-1.11-.51-3.32-2.53-3.15-3.59,0-.25.22-.57.83-.63a1.59,1.59,0,0,1,1.23.38c1.18,1,1.4,3.51,1.41,3.62a.23.23,0,0,1-.22.24Zm-2.24-3.81H363c-.41,0-.43.21-.44.26-.11.64,1.39,2.23,2.53,2.92a5.19,5.19,0,0,0-1.19-2.9A1.19,1.19,0,0,0,363.11,403.08Z" style="fill:#5078FA"></path><path d="M353.6,122.2l-1.87-.28S352.85,123.2,353.6,122.2Z" style="fill:#263238"></path><path d="M397.9,208.05l1.55,3.19c.17.24-.09.56-.52.64l-48.54,8.48c-.34.06-.65-.06-.71-.26l-.92-3.3c-.07-.23.19-.48.56-.54l47.92-8.38A.69.69,0,0,1,397.9,208.05Z" style="fill:#fff"></path><path d="M388,214.17l1-.18c.2,0,.34-.17.3-.29L388,209.42a.38.38,0,0,0-.44-.16l-1,.18c-.21,0-.34.16-.31.29l1.24,4.28C387.56,214.13,387.76,214.21,388,214.17Z" style="fill:#263238"></path><path d="M353.31,220.23l1-.18c.2,0,.34-.17.3-.29l-1.24-4.28c0-.13-.23-.2-.43-.17l-1,.18c-.2,0-.34.17-.3.29l1.24,4.28C352.91,220.19,353.11,220.26,353.31,220.23Z" style="fill:#263238"></path><path d="M363.72,218.46l7.83-1.37c.22,0,.37-.19.33-.32l-1.35-4.66c0-.14-.25-.22-.47-.18l-7.84,1.37c-.22,0-.37.18-.33.32l1.35,4.66C363.28,218.41,363.5,218.49,363.72,218.46Z" style="fill:#e0e0e0"></path><path d="M411.7,209.58,409.88,217l8.88-.13s2.65-5.3-.45-7.66Z" style="fill:#7f3e3b"></path><path d="M413.71,222.85l1.58-.07a3.44,3.44,0,0,0,3.27-3.17l.2-2.78-8.88.13.26,2.79A3.43,3.43,0,0,0,413.71,222.85Z" style="fill:#7f3e3b"></path></g><g id="freepik--Folder--inject-37"><path d="M186.76,196.34l14.36,17.16A12.66,12.66,0,0,0,211.75,218l63.79-4.69a18,18,0,0,1,19.27,16.62l8.67,117.83A18,18,0,0,1,286.86,367L110,380a18,18,0,0,1-19.27-16.63L79.54,211.63A12.64,12.64,0,0,1,91.22,198.1l84.92-6.26A12.63,12.63,0,0,1,186.76,196.34Z" style="fill:#5078FA"></path><g style="opacity:0.30000000000000004"><path d="M186.76,196.34l14.36,17.16A12.66,12.66,0,0,0,211.75,218l63.79-4.69a18,18,0,0,1,19.27,16.62l8.67,117.83A18,18,0,0,1,286.86,367L110,380a18,18,0,0,1-19.27-16.63L79.54,211.63A12.64,12.64,0,0,1,91.22,198.1l84.92-6.26A12.63,12.63,0,0,1,186.76,196.34Z"></path></g><rect x="91.77" y="204.33" width="65.69" height="5.04" rx="2.49" transform="translate(-14.85 9.71) rotate(-4.21)" style="fill:#fff"></rect><rect x="92.52" y="214.74" width="56.57" height="5.04" rx="2.49" transform="matrix(1, -0.07, 0.07, 1, -15.63, 9.46)" style="fill:#fff"></rect><path d="M292.67,360.31,106.86,374a8.51,8.51,0,0,1-9.09-7.84L89.34,251.59a8.5,8.5,0,0,1,7.84-9.09L283,228.82a8.5,8.5,0,0,1,9.09,7.84l8.44,114.56A8.52,8.52,0,0,1,292.67,360.31Z" style="fill:#e0e0e0"></path><rect x="95.94" y="235.38" width="200.63" height="131.85" rx="8.49" transform="translate(-21.6 15.23) rotate(-4.21)" style="fill:#fff"></rect><polygon points="115.52 373.36 153.86 370.53 119.15 256.37 115.52 373.36" style="fill:#f5f5f5"></polygon><path d="M328.81,328.33,145.09,359.26a8.53,8.53,0,0,1-9.79-7L116.23,239a8.52,8.52,0,0,1,7-9.78l183.72-30.93a8.52,8.52,0,0,1,9.79,7l19.07,113.27A8.53,8.53,0,0,1,328.81,328.33Z" style="fill:#fff"></path><rect x="127.01" y="212.64" width="200.63" height="131.85" rx="8.49" transform="translate(-43.09 41.61) rotate(-9.56)" style="fill:#5078FA;opacity:0.30000000000000004"></rect><path d="M304.62,222.69,136,251.07a3.76,3.76,0,0,1-4.32-3.07l-.94-5.63a3.74,3.74,0,0,1,3.07-4.31l168.62-28.39a3.75,3.75,0,0,1,4.32,3.07l.95,5.63A3.77,3.77,0,0,1,304.62,222.69Z" style="fill:#5078FA;opacity:0.2"></path><path d="M306.44,232.82,137.58,261.25a3.63,3.63,0,0,0-3,4.18l.83,5a3.63,3.63,0,0,0,4.18,3l168.86-28.43a3.63,3.63,0,0,0,3-4.17l-.84-5A3.64,3.64,0,0,0,306.44,232.82Z" style="fill:#5078FA;opacity:0.2"></path><path d="M329.07,366.51l-.36-.94a20.52,20.52,0,0,0,6.3-3.8l.66.75A21.47,21.47,0,0,1,329.07,366.51Z" style="fill:#5078FA"></path><path d="M340.77,355.92l-.89-.45a20.57,20.57,0,0,0,2.14-10.8l-1.1-15,1-.07,1.1,15A21.61,21.61,0,0,1,340.77,355.92Z" style="fill:#5078FA"></path><path d="M322.69,364.37,128.17,378.69h0L110,380a18.23,18.23,0,0,0,16.84-19.52L121,280.76a12,12,0,0,1,11.12-12.89L320.76,254a12,12,0,0,1,12.9,11.12l5.87,79.77A18.22,18.22,0,0,1,322.69,364.37Z" style="fill:#5078FA"></path></g></svg>